<?xml version="1.0" standalone="no"?>
<!DOCTYPE svg PUBLIC "-//W3C//DTD SVG 20010904//EN"
 "http://www.w3.org/TR/2001/REC-SVG-20010904/DTD/svg10.dtd">
<svg version="1.0" xmlns="http://www.w3.org/2000/svg"
 width="700.000000pt" height="700.000000pt" viewBox="0 0 700.000000 700.000000"
 preserveAspectRatio="xMidYMid meet">
<metadata>
Created by potrace 1.11, written by Peter Selinger 2001-2013
</metadata>
<g transform="translate(0.000000,700.000000) scale(0.100000,-0.100000)"
fill="#000000" stroke="none">
<path d="M2737 6414 c-1 -1 -51 -4 -112 -8 -152 -9 -328 -31 -415 -51 -14 -3
-46 -10 -71 -15 -89 -17 -275 -83 -376 -132 -363 -176 -562 -471 -610 -907
-11 -91 -10 -385 1 -566 14 -229 12 -361 -8 -430 -82 -279 -350 -438 -776
-459 l-75 -4 -3 -341 c-1 -187 1 -341 5 -342 5 0 27 -2 50 -4 164 -11 365 -89
488 -190 174 -142 270 -295 317 -501 15 -65 16 -192 3 -389 -11 -163 -12 -428
-2 -519 23 -211 91 -377 214 -521 59 -69 149 -147 203 -175 14 -7 27 -16 30
-19 3 -3 44 -25 91 -48 273 -132 658 -203 1119 -207 l105 -1 1 289 c0 194 -3
289 -10 291 -6 2 -94 6 -196 9 -102 3 -198 8 -215 10 -16 3 -70 10 -120 16
-49 7 -117 19 -150 27 -33 8 -67 16 -75 18 -137 30 -300 146 -352 250 -49 98
-53 133 -50 385 9 605 8 608 -17 740 -33 168 -121 372 -222 512 -98 139 -252
281 -369 344 -45 24 -43 27 30 64 25 13 83 49 130 81 257 175 398 386 447 669
8 49 8 251 -1 625 -3 136 -1 268 4 305 43 288 211 462 525 545 164 43 321 62
536 64 l105 1 0 293 -1 292 -88 0 c-49 0 -89 0 -90 -1z"/>
<path d="M4088 6416 c0 0 -2 -131 -3 -290 -1 -197 2 -289 9 -291 6 -2 81 -6
166 -9 85 -3 166 -7 180 -10 21 -4 124 -18 155 -21 55 -6 178 -42 265 -77 226
-91 349 -246 388 -488 4 -25 6 -155 4 -290 -9 -679 -11 -650 40 -809 64 -198
237 -408 439 -532 30 -19 64 -40 75 -46 10 -7 36 -20 57 -29 20 -9 37 -19 37
-23 0 -3 -14 -12 -31 -20 -99 -44 -280 -210 -380 -351 -55 -77 -135 -223 -153
-280 -5 -14 -9 -27 -10 -30 -5 -12 -45 -148 -51 -175 -8 -32 -11 -50 -23 -130
-8 -57 -7 -301 1 -615 4 -136 3 -235 -4 -270 -16 -82 -71 -190 -122 -237 -113
-104 -299 -172 -547 -199 -30 -3 -66 -7 -80 -10 -14 -2 -104 -7 -200 -10 -96
-3 -184 -7 -195 -8 -19 -3 -20 -10 -20 -292 l0 -289 100 1 c106 0 313 11 380
19 65 9 197 26 235 32 71 10 283 66 363 95 420 153 637 415 684 828 10 87 9
321 -1 500 -14 223 -14 318 2 400 48 258 247 501 509 620 75 34 212 70 285 75
29 2 56 4 61 4 4 1 7 154 7 341 0 265 -3 340 -12 341 -7 0 -42 2 -78 4 -103 6
-191 18 -255 36 -186 51 -299 113 -391 211 -127 138 -160 299 -128 628 10 107
12 489 3 570 -34 307 -135 537 -312 711 -74 73 -225 176 -322 219 -76 34 -295
112 -295 105 0 -3 -11 0 -24 5 -13 5 -43 12 -67 15 -24 4 -47 8 -50 11 -4 2
-24 6 -45 10 -22 3 -50 7 -63 9 -131 22 -283 35 -458 39 -68 2 -124 3 -125 2z"/>
</g>
</svg>
