<svg width="510" height="443" viewBox="0 0 510 443" fill="none" xmlns="http://www.w3.org/2000/svg">
<line x1="149.667" y1="345.212" x2="252.442" y2="242.437" stroke="#788AA3" stroke-opacity="0.5" stroke-width="3" stroke-dasharray="6 6"/>
<path d="M293.211 200.114L301.616 202.106C305.496 203.025 309.14 204.746 312.314 207.159V207.159C317.3 210.948 320.902 216.27 322.567 222.306L322.688 222.742C323.557 225.893 323.903 229.164 323.714 232.427L323.211 241.114" stroke="#00BD9D" stroke-width="3" stroke-linejoin="round"/>
<line x1="253.517" y1="240.862" x2="358.362" y2="136.017" stroke="#00BD9D" stroke-width="3"/>
<path d="M255.061 39.9293C254.475 39.3435 253.525 39.3435 252.939 39.9293L243.393 49.4753C242.808 50.0611 242.808 51.0108 243.393 51.5966C243.979 52.1824 244.929 52.1824 245.515 51.5966L254 43.1113L262.485 51.5966C263.071 52.1824 264.021 52.1824 264.606 51.5966C265.192 51.0108 265.192 50.0611 264.606 49.4753L255.061 39.9293ZM252.939 442.051C253.525 442.636 254.475 442.636 255.061 442.051L264.606 432.505C265.192 431.919 265.192 430.969 264.606 430.383C264.021 429.798 263.071 429.798 262.485 430.383L254 438.869L245.515 430.383C244.929 429.798 243.979 429.798 243.393 430.383C242.808 430.969 242.808 431.919 243.393 432.505L252.939 442.051ZM252.5 40.99L252.5 440.99H255.5L255.5 40.99H252.5Z" fill="#788AA3"/>
<path d="M52.9392 239.929C52.3534 240.515 52.3534 241.465 52.9392 242.051L62.4852 251.597C63.071 252.182 64.0207 252.182 64.6065 251.597C65.1923 251.011 65.1923 250.061 64.6065 249.475L56.1212 240.99L64.6065 232.505C65.1923 231.919 65.1923 230.969 64.6065 230.383C64.0207 229.798 63.071 229.798 62.4852 230.383L52.9392 239.929ZM455.061 242.051C455.646 241.465 455.646 240.515 455.061 239.929L445.515 230.383C444.929 229.798 443.979 229.798 443.393 230.383C442.808 230.969 442.808 231.919 443.393 232.505L451.879 240.99L443.393 249.475C442.808 250.061 442.808 251.011 443.393 251.597C443.979 252.182 444.929 252.182 445.515 251.597L455.061 242.051ZM53.9999 242.49L454 242.49V239.49L53.9999 239.49V242.49Z" fill="#788AA3"/>
<circle cx="254" cy="241" r="148.5" stroke="#6688FF" stroke-width="3"/>
<path d="M345.57 206.27H347.938V208.039H345.57V212H343.391V208.039H335.621V206.762L343.262 194.938H345.57V206.27ZM338.082 206.27H343.391V197.902L343.133 198.371L338.082 206.27ZM350.891 203.445L351.758 194.938H360.5V196.941H353.598L353.082 201.594C353.918 201.102 354.867 200.855 355.93 200.855C357.484 200.855 358.719 201.371 359.633 202.402C360.547 203.426 361.004 204.812 361.004 206.562C361.004 208.32 360.527 209.707 359.574 210.723C358.629 211.73 357.305 212.234 355.602 212.234C354.094 212.234 352.863 211.816 351.91 210.98C350.957 210.145 350.414 208.988 350.281 207.512H352.332C352.465 208.488 352.812 209.227 353.375 209.727C353.938 210.219 354.68 210.465 355.602 210.465C356.609 210.465 357.398 210.121 357.969 209.434C358.547 208.746 358.836 207.797 358.836 206.586C358.836 205.445 358.523 204.531 357.898 203.844C357.281 203.148 356.457 202.801 355.426 202.801C354.48 202.801 353.738 203.008 353.199 203.422L352.625 203.891L350.891 203.445ZM363.477 197.75C363.477 196.938 363.766 196.227 364.344 195.617C364.93 195.008 365.637 194.703 366.465 194.703C367.277 194.703 367.969 195.008 368.539 195.617C369.117 196.219 369.406 196.93 369.406 197.75C369.406 198.578 369.117 199.285 368.539 199.871C367.969 200.457 367.277 200.75 366.465 200.75C365.645 200.75 364.941 200.457 364.355 199.871C363.77 199.285 363.477 198.578 363.477 197.75ZM366.465 199.25C366.887 199.25 367.242 199.113 367.531 198.84C367.82 198.559 367.965 198.195 367.965 197.75C367.965 197.297 367.82 196.926 367.531 196.637C367.242 196.34 366.887 196.191 366.465 196.191C366.035 196.191 365.672 196.348 365.375 196.66C365.086 196.965 364.941 197.328 364.941 197.75C364.941 198.172 365.086 198.527 365.375 198.816C365.672 199.105 366.035 199.25 366.465 199.25Z" fill="#00BD9D"/>
<circle cx="298" cy="99" r="5" fill="#EB6954"/>
<circle cx="298" cy="383" r="5" fill="#EB6954"/>
<circle cx="207" cy="99" r="5" fill="#EB6954"/>
<circle cx="207" cy="383" r="5" fill="#EB6954"/>
<circle cx="398" cy="275" r="5" fill="#EB6954"/>
<circle cx="398" cy="206" r="5" fill="#EB6954"/>
<circle cx="109" cy="275" r="5" fill="#EB6954"/>
<circle cx="109" cy="206" r="5" fill="#EB6954"/>
<line x1="151.291" y1="136.169" x2="359.831" y2="344.709" stroke="#788AA3" stroke-opacity="0.5" stroke-width="3" stroke-dasharray="6 6"/>
<path d="M319.292 87.6C319.292 89.208 319.472 90.608 319.832 91.8C320.192 92.992 320.744 94.092 321.488 95.1C322.24 96.1 323.188 97.128 324.332 98.184L323.084 99.432C321.788 98.368 320.676 97.272 319.748 96.144C318.828 95.016 318.12 93.764 317.624 92.388C317.136 91.004 316.892 89.408 316.892 87.6C316.892 85.792 317.136 84.2 317.624 82.824C318.12 81.44 318.828 80.184 319.748 79.056C320.676 77.928 321.788 76.832 323.084 75.768L324.332 77.016C323.188 78.064 322.244 79.088 321.5 80.088C320.756 81.088 320.2 82.188 319.832 83.388C319.472 84.58 319.292 85.984 319.292 87.6ZM341.447 83.352L337.031 96.072C336.727 96.968 336.335 97.776 335.855 98.496C335.375 99.224 334.755 99.816 333.995 100.272C333.243 100.728 332.295 101.012 331.151 101.124L330.827 99.336C331.691 99.2 332.375 98.992 332.879 98.712C333.391 98.432 333.791 98.068 334.079 97.62C334.375 97.172 334.639 96.632 334.871 96H334.091L329.735 83.352H332.195L335.639 94.32L339.071 83.352H341.447ZM349.981 91.896C350.565 91.896 351.053 92.096 351.445 92.496C351.837 92.888 352.033 93.364 352.033 93.924C352.033 94.244 351.989 94.568 351.901 94.896C351.821 95.216 351.677 95.596 351.469 96.036L349.561 100.404H347.629L348.793 95.604C348.233 95.212 347.953 94.648 347.953 93.912C347.953 93.352 348.145 92.876 348.529 92.484C348.921 92.092 349.405 91.896 349.981 91.896ZM360.964 96H358.372L362.992 89.328L358.924 83.352H361.612L364.396 87.948L367.204 83.352H369.784L365.752 89.232L370.372 96H367.6L364.3 90.684L360.964 96ZM380.671 87.6C380.671 85.984 380.487 84.58 380.119 83.388C379.759 82.188 379.207 81.088 378.463 80.088C377.719 79.088 376.775 78.064 375.631 77.016L376.879 75.768C378.175 76.832 379.283 77.928 380.203 79.056C381.131 80.184 381.839 81.44 382.327 82.824C382.823 84.2 383.071 85.792 383.071 87.6C383.071 89.408 382.823 91.004 382.327 92.388C381.839 93.764 381.131 95.016 380.203 96.144C379.283 97.272 378.175 98.368 376.879 99.432L375.631 98.184C376.775 97.128 377.719 96.1 378.463 95.1C379.215 94.092 379.771 92.992 380.131 91.8C380.491 90.608 380.671 89.208 380.671 87.6Z" fill="#EB6954"/>
<path d="M259.056 11.352L254.64 24.072C254.336 24.968 253.944 25.776 253.464 26.496C252.984 27.224 252.364 27.816 251.604 28.272C250.852 28.728 249.904 29.012 248.76 29.124L248.436 27.336C249.3 27.2 249.984 26.992 250.488 26.712C251 26.432 251.4 26.068 251.688 25.62C251.984 25.172 252.248 24.632 252.48 24H251.7L247.344 11.352H249.804L253.248 22.32L256.68 11.352H259.056Z" fill="#788AA3"/>
<path d="M467.792 247H465.2L469.82 240.328L465.752 234.352H468.44L471.224 238.948L474.032 234.352H476.612L472.58 240.232L477.2 247H474.428L471.128 241.684L467.792 247Z" fill="#788AA3"/>
<path d="M413.292 194.6C413.292 196.208 413.472 197.608 413.832 198.8C414.192 199.992 414.744 201.092 415.488 202.1C416.24 203.1 417.188 204.128 418.332 205.184L417.084 206.432C415.788 205.368 414.676 204.272 413.748 203.144C412.828 202.016 412.12 200.764 411.624 199.388C411.136 198.004 410.892 196.408 410.892 194.6C410.892 192.792 411.136 191.2 411.624 189.824C412.12 188.44 412.828 187.184 413.748 186.056C414.676 184.928 415.788 183.832 417.084 182.768L418.332 184.016C417.188 185.064 416.244 186.088 415.5 187.088C414.756 188.088 414.2 189.188 413.832 190.388C413.472 191.58 413.292 192.984 413.292 194.6ZM426.183 203H423.591L428.211 196.328L424.143 190.352H426.831L429.615 194.948L432.423 190.352H435.003L430.971 196.232L435.591 203H432.819L429.519 197.684L426.183 203ZM443.981 198.896C444.565 198.896 445.053 199.096 445.445 199.496C445.837 199.888 446.033 200.364 446.033 200.924C446.033 201.244 445.989 201.568 445.901 201.896C445.821 202.216 445.677 202.596 445.469 203.036L443.561 207.404H441.629L442.793 202.604C442.233 202.212 441.953 201.648 441.953 200.912C441.953 200.352 442.145 199.876 442.529 199.484C442.921 199.092 443.405 198.896 443.981 198.896ZM464.228 190.352L459.812 203.072C459.508 203.968 459.116 204.776 458.636 205.496C458.156 206.224 457.536 206.816 456.776 207.272C456.024 207.728 455.076 208.012 453.932 208.124L453.608 206.336C454.472 206.2 455.156 205.992 455.66 205.712C456.172 205.432 456.572 205.068 456.86 204.62C457.156 204.172 457.42 203.632 457.652 203H456.872L452.516 190.352H454.976L458.42 201.32L461.852 190.352H464.228ZM474.671 194.6C474.671 192.984 474.487 191.58 474.119 190.388C473.759 189.188 473.207 188.088 472.463 187.088C471.719 186.088 470.775 185.064 469.631 184.016L470.879 182.768C472.175 183.832 473.283 184.928 474.203 186.056C475.131 187.184 475.839 188.44 476.327 189.824C476.823 191.2 477.071 192.792 477.071 194.6C477.071 196.408 476.823 198.004 476.327 199.388C475.839 200.764 475.131 202.016 474.203 203.144C473.283 204.272 472.175 205.368 470.879 206.432L469.631 205.184C470.775 204.128 471.719 203.1 472.463 202.1C473.215 201.092 473.771 199.992 474.131 198.8C474.491 197.608 474.671 196.208 474.671 194.6Z" fill="#EB6954"/>
<path d="M303.292 406.6C303.292 408.208 303.472 409.608 303.832 410.8C304.192 411.992 304.744 413.092 305.488 414.1C306.24 415.1 307.188 416.128 308.332 417.184L307.084 418.432C305.788 417.368 304.676 416.272 303.748 415.144C302.828 414.016 302.12 412.764 301.624 411.388C301.136 410.004 300.892 408.408 300.892 406.6C300.892 404.792 301.136 403.2 301.624 401.824C302.12 400.44 302.828 399.184 303.748 398.056C304.676 396.928 305.788 395.832 307.084 394.768L308.332 396.016C307.188 397.064 306.244 398.088 305.5 399.088C304.756 400.088 304.2 401.188 303.832 402.388C303.472 403.58 303.292 404.984 303.292 406.6ZM325.447 402.352L321.031 415.072C320.727 415.968 320.335 416.776 319.855 417.496C319.375 418.224 318.755 418.816 317.995 419.272C317.243 419.728 316.295 420.012 315.151 420.124L314.827 418.336C315.691 418.2 316.375 417.992 316.879 417.712C317.391 417.432 317.791 417.068 318.079 416.62C318.375 416.172 318.639 415.632 318.871 415H318.091L313.735 402.352H316.195L319.639 413.32L323.071 402.352H325.447ZM333.981 410.896C334.565 410.896 335.053 411.096 335.445 411.496C335.837 411.888 336.033 412.364 336.033 412.924C336.033 413.244 335.989 413.568 335.901 413.896C335.821 414.216 335.677 414.596 335.469 415.036L333.561 419.404H331.629L332.793 414.604C332.233 414.212 331.953 413.648 331.953 412.912C331.953 412.352 332.145 411.876 332.529 411.484C332.921 411.092 333.405 410.896 333.981 410.896ZM343.5 409.42V407.476H353.244V409.42H343.5ZM359.355 415H356.763L361.383 408.328L357.315 402.352H360.003L362.787 406.948L365.595 402.352H368.174L364.143 408.232L368.763 415H365.991L362.691 409.684L359.355 415ZM379.061 406.6C379.061 404.984 378.877 403.58 378.509 402.388C378.149 401.188 377.597 400.088 376.853 399.088C376.109 398.088 375.165 397.064 374.021 396.016L375.269 394.768C376.565 395.832 377.673 396.928 378.593 398.056C379.521 399.184 380.229 400.44 380.717 401.824C381.213 403.2 381.461 404.792 381.461 406.6C381.461 408.408 381.213 410.004 380.717 411.388C380.229 412.764 379.521 414.016 378.593 415.144C377.673 416.272 376.565 417.368 375.269 418.432L374.021 417.184C375.165 416.128 376.109 415.1 376.853 414.1C377.605 413.092 378.161 411.992 378.521 410.8C378.881 409.608 379.061 408.208 379.061 406.6Z" fill="#EB6954"/>
<path d="M135.292 406.6C135.292 408.208 135.472 409.608 135.832 410.8C136.192 411.992 136.744 413.092 137.488 414.1C138.24 415.1 139.188 416.128 140.332 417.184L139.084 418.432C137.788 417.368 136.676 416.272 135.748 415.144C134.828 414.016 134.12 412.764 133.624 411.388C133.136 410.004 132.892 408.408 132.892 406.6C132.892 404.792 133.136 403.2 133.624 401.824C134.12 400.44 134.828 399.184 135.748 398.056C136.676 396.928 137.788 395.832 139.084 394.768L140.332 396.016C139.188 397.064 138.244 398.088 137.5 399.088C136.756 400.088 136.2 401.188 135.832 402.388C135.472 403.58 135.292 404.984 135.292 406.6ZM146.719 408.46V406.516H156.463V408.46H146.719ZM171.837 402.352L167.421 415.072C167.117 415.968 166.725 416.776 166.245 417.496C165.765 418.224 165.145 418.816 164.385 419.272C163.633 419.728 162.685 420.012 161.541 420.124L161.217 418.336C162.081 418.2 162.765 417.992 163.269 417.712C163.781 417.432 164.181 417.068 164.469 416.62C164.765 416.172 165.029 415.632 165.261 415H164.481L160.125 402.352H162.585L166.029 413.32L169.461 402.352H171.837ZM180.372 410.896C180.956 410.896 181.444 411.096 181.836 411.496C182.228 411.888 182.424 412.364 182.424 412.924C182.424 413.244 182.38 413.568 182.292 413.896C182.212 414.216 182.068 414.596 181.86 415.036L179.952 419.404H178.02L179.184 414.604C178.624 414.212 178.344 413.648 178.344 412.912C178.344 412.352 178.536 411.876 178.92 411.484C179.312 411.092 179.796 410.896 180.372 410.896ZM189.891 409.42V407.476H199.635V409.42H189.891ZM205.745 415H203.153L207.773 408.328L203.705 402.352H206.393L209.177 406.948L211.985 402.352H214.565L210.533 408.232L215.153 415H212.381L209.081 409.684L205.745 415ZM225.452 406.6C225.452 404.984 225.268 403.58 224.9 402.388C224.54 401.188 223.988 400.088 223.244 399.088C222.5 398.088 221.556 397.064 220.412 396.016L221.66 394.768C222.956 395.832 224.064 396.928 224.984 398.056C225.912 399.184 226.62 400.44 227.108 401.824C227.604 403.2 227.852 404.792 227.852 406.6C227.852 408.408 227.604 410.004 227.108 411.388C226.62 412.764 225.912 414.016 224.984 415.144C224.064 416.272 222.956 417.368 221.66 418.432L220.412 417.184C221.556 416.128 222.5 415.1 223.244 414.1C223.996 413.092 224.552 411.992 224.912 410.8C225.272 409.608 225.452 408.208 225.452 406.6Z" fill="#EB6954"/>
<path d="M5.292 285.6C5.292 287.208 5.472 288.608 5.832 289.8C6.192 290.992 6.744 292.092 7.488 293.1C8.24 294.1 9.188 295.128 10.332 296.184L9.084 297.432C7.788 296.368 6.676 295.272 5.748 294.144C4.828 293.016 4.12 291.764 3.624 290.388C3.136 289.004 2.892 287.408 2.892 285.6C2.892 283.792 3.136 282.2 3.624 280.824C4.12 279.44 4.828 278.184 5.748 277.056C6.676 275.928 7.788 274.832 9.084 273.768L10.332 275.016C9.188 276.064 8.244 277.088 7.5 278.088C6.756 279.088 6.2 280.188 5.832 281.388C5.472 282.58 5.292 283.984 5.292 285.6ZM16.7186 287.46V285.516H26.4626V287.46H16.7186ZM32.5733 294H29.9813L34.6013 287.328L30.5333 281.352H33.2213L36.0053 285.948L38.8133 281.352H41.3932L37.3613 287.232L41.9813 294H39.2093L35.9093 288.684L32.5733 294ZM50.3719 289.896C50.9559 289.896 51.4439 290.096 51.8359 290.496C52.2279 290.888 52.4239 291.364 52.4239 291.924C52.4239 292.244 52.3799 292.568 52.2919 292.896C52.2119 293.216 52.0679 293.596 51.8599 294.036L49.9519 298.404H48.0199L49.1839 293.604C48.6239 293.212 48.3439 292.648 48.3439 291.912C48.3439 291.352 48.5359 290.876 48.9199 290.484C49.3119 290.092 49.7959 289.896 50.3719 289.896ZM59.8905 288.42V286.476H69.6345V288.42H59.8905ZM85.0091 281.352L80.5931 294.072C80.2891 294.968 79.8971 295.776 79.4171 296.496C78.9371 297.224 78.3171 297.816 77.5571 298.272C76.8051 298.728 75.8571 299.012 74.7131 299.124L74.3891 297.336C75.2531 297.2 75.9371 296.992 76.4411 296.712C76.9531 296.432 77.3531 296.068 77.6411 295.62C77.9371 295.172 78.2011 294.632 78.4331 294H77.6531L73.2971 281.352H75.7571L79.2011 292.32L82.6331 281.352H85.0091ZM95.4518 285.6C95.4518 283.984 95.2678 282.58 94.8998 281.388C94.5398 280.188 93.9878 279.088 93.2438 278.088C92.4998 277.088 91.5558 276.064 90.4118 275.016L91.6598 273.768C92.9558 274.832 94.0638 275.928 94.9838 277.056C95.9118 278.184 96.6198 279.44 97.1078 280.824C97.6038 282.2 97.8518 283.792 97.8518 285.6C97.8518 287.408 97.6038 289.004 97.1078 290.388C96.6198 291.764 95.9118 293.016 94.9838 294.144C94.0638 295.272 92.9558 296.368 91.6598 297.432L90.4118 296.184C91.5558 295.128 92.4998 294.1 93.2438 293.1C93.9958 292.092 94.5518 290.992 94.9118 289.8C95.2718 288.608 95.4518 287.208 95.4518 285.6Z" fill="#EB6954"/>
<path d="M20.292 194.6C20.292 196.208 20.472 197.608 20.832 198.8C21.192 199.992 21.744 201.092 22.488 202.1C23.24 203.1 24.188 204.128 25.332 205.184L24.084 206.432C22.788 205.368 21.676 204.272 20.748 203.144C19.828 202.016 19.12 200.764 18.624 199.388C18.136 198.004 17.892 196.408 17.892 194.6C17.892 192.792 18.136 191.2 18.624 189.824C19.12 188.44 19.828 187.184 20.748 186.056C21.676 184.928 22.788 183.832 24.084 182.768L25.332 184.016C24.188 185.064 23.244 186.088 22.5 187.088C21.756 188.088 21.2 189.188 20.832 190.388C20.472 191.58 20.292 192.984 20.292 194.6ZM31.7186 196.46V194.516H41.4626V196.46H31.7186ZM47.5733 203H44.9813L49.6013 196.328L45.5333 190.352H48.2213L51.0053 194.948L53.8133 190.352H56.3932L52.3613 196.232L56.9813 203H54.2093L50.9093 197.684L47.5733 203ZM65.3719 198.896C65.9559 198.896 66.4439 199.096 66.8359 199.496C67.2279 199.888 67.4239 200.364 67.4239 200.924C67.4239 201.244 67.3799 201.568 67.2919 201.896C67.2119 202.216 67.0679 202.596 66.8599 203.036L64.9519 207.404H63.0199L64.1839 202.604C63.6239 202.212 63.3439 201.648 63.3439 200.912C63.3439 200.352 63.5359 199.876 63.9199 199.484C64.3119 199.092 64.7959 198.896 65.3719 198.896ZM85.6185 190.352L81.2025 203.072C80.8985 203.968 80.5065 204.776 80.0265 205.496C79.5465 206.224 78.9265 206.816 78.1665 207.272C77.4145 207.728 76.4665 208.012 75.3225 208.124L74.9985 206.336C75.8625 206.2 76.5465 205.992 77.0505 205.712C77.5625 205.432 77.9625 205.068 78.2505 204.62C78.5465 204.172 78.8105 203.632 79.0425 203H78.2625L73.9065 190.352H76.3665L79.8105 201.32L83.2425 190.352H85.6185ZM96.0611 194.6C96.0611 192.984 95.8771 191.58 95.5091 190.388C95.1491 189.188 94.5971 188.088 93.8531 187.088C93.1091 186.088 92.1651 185.064 91.0211 184.016L92.2691 182.768C93.5651 183.832 94.6731 184.928 95.5931 186.056C96.5211 187.184 97.2291 188.44 97.7171 189.824C98.2131 191.2 98.4611 192.792 98.4611 194.6C98.4611 196.408 98.2131 198.004 97.7171 199.388C97.2291 200.764 96.5211 202.016 95.5931 203.144C94.6731 204.272 93.5651 205.368 92.2691 206.432L91.0211 205.184C92.1651 204.128 93.1091 203.1 93.8531 202.1C94.6051 201.092 95.1611 199.992 95.5211 198.8C95.8811 197.608 96.0611 196.208 96.0611 194.6Z" fill="#EB6954"/>
<path d="M118.292 88.6C118.292 90.208 118.472 91.608 118.832 92.8C119.192 93.992 119.744 95.092 120.488 96.1C121.24 97.1 122.188 98.128 123.332 99.184L122.084 100.432C120.788 99.368 119.676 98.272 118.748 97.144C117.828 96.016 117.12 94.764 116.624 93.388C116.136 92.004 115.892 90.408 115.892 88.6C115.892 86.792 116.136 85.2 116.624 83.824C117.12 82.44 117.828 81.184 118.748 80.056C119.676 78.928 120.788 77.832 122.084 76.768L123.332 78.016C122.188 79.064 121.244 80.088 120.5 81.088C119.756 82.088 119.2 83.188 118.832 84.388C118.472 85.58 118.292 86.984 118.292 88.6ZM129.719 90.46V88.516H139.463V90.46H129.719ZM154.837 84.352L150.421 97.072C150.117 97.968 149.725 98.776 149.245 99.496C148.765 100.224 148.145 100.816 147.385 101.272C146.633 101.728 145.685 102.012 144.541 102.124L144.217 100.336C145.081 100.2 145.765 99.992 146.269 99.712C146.781 99.432 147.181 99.068 147.469 98.62C147.765 98.172 148.029 97.632 148.261 97H147.481L143.125 84.352H145.585L149.029 95.32L152.461 84.352H154.837ZM163.372 92.896C163.956 92.896 164.444 93.096 164.836 93.496C165.228 93.888 165.424 94.364 165.424 94.924C165.424 95.244 165.38 95.568 165.292 95.896C165.212 96.216 165.068 96.596 164.86 97.036L162.952 101.404H161.02L162.184 96.604C161.624 96.212 161.344 95.648 161.344 94.912C161.344 94.352 161.536 93.876 161.92 93.484C162.312 93.092 162.796 92.896 163.372 92.896ZM174.355 97H171.763L176.383 90.328L172.315 84.352H175.003L177.787 88.948L180.595 84.352H183.174L179.143 90.232L183.763 97H180.991L177.691 91.684L174.355 97ZM194.061 88.6C194.061 86.984 193.877 85.58 193.509 84.388C193.149 83.188 192.597 82.088 191.853 81.088C191.109 80.088 190.165 79.064 189.021 78.016L190.269 76.768C191.565 77.832 192.673 78.928 193.593 80.056C194.521 81.184 195.229 82.44 195.717 83.824C196.213 85.2 196.461 86.792 196.461 88.6C196.461 90.408 196.213 92.004 195.717 93.388C195.229 94.764 194.521 96.016 193.593 97.144C192.673 98.272 191.565 99.368 190.269 100.432L189.021 99.184C190.165 98.128 191.109 97.1 191.853 96.1C192.605 95.092 193.161 93.992 193.521 92.8C193.881 91.608 194.061 90.208 194.061 88.6Z" fill="#EB6954"/>
<path d="M413.292 284.6C413.292 286.208 413.472 287.608 413.832 288.8C414.192 289.992 414.744 291.092 415.488 292.1C416.24 293.1 417.188 294.128 418.332 295.184L417.084 296.432C415.788 295.368 414.676 294.272 413.748 293.144C412.828 292.016 412.12 290.764 411.624 289.388C411.136 288.004 410.892 286.408 410.892 284.6C410.892 282.792 411.136 281.2 411.624 279.824C412.12 278.44 412.828 277.184 413.748 276.056C414.676 274.928 415.788 273.832 417.084 272.768L418.332 274.016C417.188 275.064 416.244 276.088 415.5 277.088C414.756 278.088 414.2 279.188 413.832 280.388C413.472 281.58 413.292 282.984 413.292 284.6ZM426.183 293H423.591L428.211 286.328L424.143 280.352H426.831L429.615 284.948L432.423 280.352H435.003L430.971 286.232L435.591 293H432.819L429.519 287.684L426.183 293ZM443.981 288.896C444.565 288.896 445.053 289.096 445.445 289.496C445.837 289.888 446.033 290.364 446.033 290.924C446.033 291.244 445.989 291.568 445.901 291.896C445.821 292.216 445.677 292.596 445.469 293.036L443.561 297.404H441.629L442.793 292.604C442.233 292.212 441.953 291.648 441.953 290.912C441.953 290.352 442.145 289.876 442.529 289.484C442.921 289.092 443.405 288.896 443.981 288.896ZM453.5 287.42V285.476H463.244V287.42H453.5ZM478.619 280.352L474.203 293.072C473.899 293.968 473.507 294.776 473.027 295.496C472.547 296.224 471.927 296.816 471.167 297.272C470.415 297.728 469.467 298.012 468.323 298.124L467.999 296.336C468.863 296.2 469.547 295.992 470.051 295.712C470.563 295.432 470.963 295.068 471.251 294.62C471.547 294.172 471.811 293.632 472.043 293H471.263L466.907 280.352H469.367L472.811 291.32L476.243 280.352H478.619ZM489.061 284.6C489.061 282.984 488.877 281.58 488.509 280.388C488.149 279.188 487.597 278.088 486.853 277.088C486.109 276.088 485.165 275.064 484.021 274.016L485.269 272.768C486.565 273.832 487.673 274.928 488.593 276.056C489.521 277.184 490.229 278.44 490.717 279.824C491.213 281.2 491.461 282.792 491.461 284.6C491.461 286.408 491.213 288.004 490.717 289.388C490.229 290.764 489.521 292.016 488.593 293.144C487.673 294.272 486.565 295.368 485.269 296.432L484.021 295.184C485.165 294.128 486.109 293.1 486.853 292.1C487.605 291.092 488.161 289.992 488.521 288.8C488.881 287.608 489.061 286.208 489.061 284.6Z" fill="#EB6954"/>
</svg>
