<svg xmlns="http://www.w3.org/2000/svg" xmlns:xlink="http://www.w3.org/1999/xlink" xmlns:lucid="lucid" width="1183.26" height="582.79"><g transform="translate(1362.5000001018118 -1248.186778482025)" lucid:page-tab-id="0_0"><path d="M-1360 1256.7a6 6 0 0 1 6-6h366.26a6 6 0 0 1 6 6v96.46a6 6 0 0 1-6 6H-1354a6 6 0 0 1-6-6z" stroke="#7d89a1" stroke-width="5" fill-opacity="0"/><use xlink:href="#a" transform="matrix(1,0,0,1,-1355,1255.6867785088434) translate(35.52213541666666 61.07638888888889)"/><use xlink:href="#b" transform="matrix(1,0,0,1,-1355,1255.6867785088434) translate(163.65798611111111 61.07638888888889)"/><use xlink:href="#c" transform="matrix(1,0,0,1,-1355,1255.6867785088434) translate(268.85546875 61.07638888888889)"/><path d="M-1120 1406a6 6 0 0 1 6-6h366.26a6 6 0 0 1 6 6v117.85a6 6 0 0 1-6 6H-1114a6 6 0 0 1-6-6z" stroke="#7d89a1" stroke-width="5" fill-opacity="0"/><use xlink:href="#d" transform="matrix(1,0,0,1,-1115,1405) translate(9.507595486111086 48.88888888888889)"/><use xlink:href="#e" transform="matrix(1,0,0,1,-1115,1405) translate(181.33268229166666 48.88888888888889)"/><use xlink:href="#f" transform="matrix(1,0,0,1,-1115,1405) translate(297.92339409722223 48.88888888888889)"/><use xlink:href="#g" transform="matrix(1,0,0,1,-1115,1405) translate(74.7224392361111 94.0607638888889)"/><use xlink:href="#h" transform="matrix(1,0,0,1,-1115,1405) translate(167.66080729166669 94.0607638888889)"/><path d="M-840 1576.7a6 6 0 0 1 6-6h366.26a6 6 0 0 1 6 6v96.46a6 6 0 0 1-6 6H-834a6 6 0 0 1-6-6z" stroke="#7d89a1" stroke-width="5" fill="#afbdff" fill-opacity=".3"/><use xlink:href="#i" transform="matrix(1,0,0,1,-835,1575.6867785088436) translate(63.32921006944443 61.07638888888889)"/><use xlink:href="#j" transform="matrix(1,0,0,1,-835,1575.6867785088436) translate(129.86566840277777 61.07638888888889)"/><use xlink:href="#k" transform="matrix(1,0,0,1,-835,1575.6867785088436) translate(251.423828125 61.07638888888889)"/><path d="M-560 1726a6 6 0 0 1 6-6h366.26a6 6 0 0 1 6 6v96.48a6 6 0 0 1-6 6H-554a6 6 0 0 1-6-6z" stroke="#7d89a1" stroke-width="5" fill-opacity="0"/><use xlink:href="#l" transform="matrix(1,0,0,1,-555,1725.0000000000002) translate(132.00759548611111 61.07638888888889)"/><path d="M-1170.87 1364.16v94.77a6 6 0 0 0 6 6h17.5" stroke="#7d89a1" stroke-width="5" fill="none"/><path d="M-1168.4 1364.23h-4.94v-2.57h4.94z" stroke="#7d89a1" stroke-width=".05" fill="#7d89a1"/><path d="M-1130.6 1464.93l-14.26 4.63v-9.27z" stroke="#7d89a1" stroke-width="5" fill="#7d89a1"/><path d="M-930.87 1534.85v84.08a6 6 0 0 0 6 6h57.5" stroke="#7d89a1" stroke-width="5" fill="none"/><path d="M-928.4 1534.92h-4.95v-2.57h4.96z" stroke="#7d89a1" stroke-width=".05" fill="#7d89a1"/><path d="M-850.6 1624.93l-14.26 4.63v-9.27z" stroke="#7d89a1" stroke-width="5" fill="#7d89a1"/><path d="M-650.87 1684.16v79.87a6 6 0 0 0 6 6h57.5" stroke="#7d89a1" stroke-width="5" fill="none"/><path d="M-648.4 1684.23h-4.95v-2.57h4.96z" stroke="#7d89a1" stroke-width=".05" fill="#7d89a1"/><path d="M-570.6 1770.03l-14.26 4.64v-9.27z" stroke="#7d89a1" stroke-width="5" fill="#7d89a1"/><defs><path fill="#7188f7" d="M370-1490V0H180v-1490h190" id="m"/><path fill="#7188f7" d="M338-670V0H158v-1118h173l1 207c72-158 192-221 342-221 226 0 378 139 378 422V0H872v-695c0-172-96-275-252-275-161 0-282 109-282 300" id="n"/><path fill="#7188f7" d="M158 0v-1118h180V0H158zm91-1301c-68 0-125-53-125-119s57-119 125-119c69 0 126 53 126 119s-57 119-126 119" id="o"/><path fill="#7188f7" d="M598-1118v154H368v674c0 100 37 144 132 144 23 0 62-6 92-12L629-6c-37 13-88 20-134 20-193 0-307-107-307-290v-688H20v-154h168v-266h180v266h230" id="p"/><path fill="#7188f7" d="M471 26C259 26 90-98 90-318c0-256 228-303 435-329 202-27 287-16 287-108 0-139-79-219-234-219-161 0-248 86-283 164l-173-57c86-203 278-265 451-265 150 0 419 46 419 395V0H815v-152h-12C765-73 660 26 471 26zm31-159c199 0 310-134 310-271v-155c-30 35-226 55-295 64-131 17-246 59-246 186 0 116 97 176 231 176" id="q"/><path fill="#7188f7" d="M338-1490V0H158v-1490h180" id="r"/><path fill="#7188f7" d="M126 0v-134l627-806v-11H146v-167h839v143L376-178v11h629V0H126" id="s"/><path fill="#7188f7" d="M628 24c-324 0-524-230-524-574 0-343 198-582 503-582 237 0 487 146 487 559v75H286c9 234 145 362 343 362 132 0 231-58 273-172l174 48C1024-91 857 24 628 24zM287-650h624c-17-190-120-322-304-322-192 0-309 151-320 322" id="t"/><g id="a"><use transform="matrix(0.015190972222222224,0,0,0.015190972222222224,0,0)" xlink:href="#m"/><use transform="matrix(0.015190972222222224,0,0,0.015190972222222224,8.355034722222223,0)" xlink:href="#n"/><use transform="matrix(0.015190972222222224,0,0,0.015190972222222224,26.736111111111114,0)" xlink:href="#o"/><use transform="matrix(0.015190972222222224,0,0,0.015190972222222224,34.270833333333336,0)" xlink:href="#p"/><use transform="matrix(0.015190972222222224,0,0,0.015190972222222224,44.44878472222223,0)" xlink:href="#o"/><use transform="matrix(0.015190972222222224,0,0,0.015190972222222224,51.98350694444445,0)" xlink:href="#q"/><use transform="matrix(0.015190972222222224,0,0,0.015190972222222224,69.453125,0)" xlink:href="#r"/><use transform="matrix(0.015190972222222224,0,0,0.015190972222222224,76.98784722222223,0)" xlink:href="#o"/><use transform="matrix(0.015190972222222224,0,0,0.015190972222222224,84.52256944444446,0)" xlink:href="#s"/><use transform="matrix(0.015190972222222224,0,0,0.015190972222222224,101.24782986111111,0)" xlink:href="#t"/></g><path fill="#7188f7" d="M180 0v-1490h190v644h782v-644h190V0h-190v-678H370V0H180" id="u"/><path fill="#7188f7" d="M611 442c-248 0-391-105-460-228l146-94c47 65 117 165 314 165 178 0 307-82 307-266v-224h-17C863-141 792-18 576-18c-268 0-472-195-472-546 0-346 197-568 476-568 216 0 288 133 326 193h17v-179h175V29c0 289-215 413-487 413zm-5-620c203 0 314-146 314-390 0-237-108-403-314-403-213 0-319 180-319 403 0 230 109 390 319 390" id="v"/><path fill="#7188f7" d="M338-670V0H158v-1490h180v566c73-149 190-208 336-208 226 0 379 139 379 422V0H872v-695c0-172-96-275-252-275-161 0-282 109-282 300" id="w"/><g id="b"><use transform="matrix(0.015190972222222224,0,0,0.015190972222222224,0,0)" xlink:href="#u"/><use transform="matrix(0.015190972222222224,0,0,0.015190972222222224,23.120659722222225,0)" xlink:href="#t"/><use transform="matrix(0.015190972222222224,0,0,0.015190972222222224,41.25868055555556,0)" xlink:href="#o"/><use transform="matrix(0.015190972222222224,0,0,0.015190972222222224,48.79340277777778,0)" xlink:href="#v"/><use transform="matrix(0.015190972222222224,0,0,0.015190972222222224,67.87326388888889,0)" xlink:href="#w"/><use transform="matrix(0.015190972222222224,0,0,0.015190972222222224,86.26953125,0)" xlink:href="#p"/></g><path fill="#7188f7" d="M180 0v-1490h270l367 940c28 72 75 218 110 339 35-117 81-264 110-339l362-940h271V0h-187c2-448-5-837 7-1287-157 497-311 829-483 1287H842C666-458 514-784 354-1284c12 438 5 843 7 1284H180" id="x"/><path fill="#7188f7" d="M158 418v-1536h174v179h20c37-59 106-193 324-193 279 0 474 222 474 576 0 356-194 580-473 580-213 0-288-135-325-197h-14v591H158zm492-555c209 0 317-186 317-421 0-232-105-413-317-413-206 0-314 166-314 413 0 249 111 421 314 421" id="y"/><g id="c"><use transform="matrix(0.015190972222222224,0,0,0.015190972222222224,0,0)" xlink:href="#x"/><use transform="matrix(0.015190972222222224,0,0,0.015190972222222224,28.103298611111114,0)" xlink:href="#q"/><use transform="matrix(0.015190972222222224,0,0,0.015190972222222224,45.57291666666667,0)" xlink:href="#y"/></g><path fill="#7188f7" d="M180 0v-1490h510c348 0 508 194 508 460 0 198-88 351-276 417L1256 0h-220L726-579c-117 2-238 0-356 1V0H180zm190-747h312c235 0 327-108 327-283 0-177-92-293-329-293H370v576" id="z"/><path fill="#7188f7" d="M577 24c-279 0-473-224-473-580 0-354 195-576 474-576 218 0 287 134 324 193h14v-551h180V0H922v-173h-20C865-111 790 24 577 24zm27-161c203 0 314-172 314-421 0-247-108-413-314-413-212 0-317 181-317 413 0 235 108 421 317 421" id="A"/><path fill="#7188f7" d="M613 24c-304 0-509-231-509-576 0-350 205-580 509-580 305 0 511 230 511 580 0 345-206 576-511 576zm0-161c226 0 329-195 329-415 0-222-103-419-329-419-223 0-326 196-326 419 0 220 103 415 326 415" id="B"/><path fill="#7188f7" d="M158 0v-1118h175l1 205c55-151 181-225 313-225 147 0 245 90 285 228 53-141 190-228 352-228 194 0 352 125 352 384V0h-181v-749c0-161-105-225-225-225-151 0-243 103-243 244V0H807v-767c0-124-93-207-219-207-131 0-250 92-250 270V0H158" id="C"/><g id="d"><use transform="matrix(0.015190972222222224,0,0,0.015190972222222224,0,0)" xlink:href="#z"/><use transform="matrix(0.015190972222222224,0,0,0.015190972222222224,19.869791666666668,0)" xlink:href="#q"/><use transform="matrix(0.015190972222222224,0,0,0.015190972222222224,37.33940972222223,0)" xlink:href="#n"/><use transform="matrix(0.015190972222222224,0,0,0.015190972222222224,55.720486111111114,0)" xlink:href="#A"/><use transform="matrix(0.015190972222222224,0,0,0.015190972222222224,74.76996527777779,0)" xlink:href="#B"/><use transform="matrix(0.015190972222222224,0,0,0.015190972222222224,93.42447916666667,0)" xlink:href="#C"/><use transform="matrix(0.015190972222222224,0,0,0.015190972222222224,120.67708333333334,0)" xlink:href="#o"/><use transform="matrix(0.015190972222222224,0,0,0.015190972222222224,128.21180555555557,0)" xlink:href="#s"/><use transform="matrix(0.015190972222222224,0,0,0.015190972222222224,144.93706597222223,0)" xlink:href="#t"/></g><path fill="#7188f7" d="M538 24C308 24 148-78 108-271l171-41c32 123 123 178 257 178 156 0 256-77 256-169 0-77-54-128-164-154l-186-44c-203-48-300-148-300-305 0-192 176-326 414-326 230 0 351 112 402 269l-163 42c-31-80-94-158-238-158-133 0-233 69-233 162 0 83 57 129 188 160l169 40c203 48 298 149 298 302 0 196-179 339-441 339" id="D"/><g id="e"><use transform="matrix(0.015190972222222224,0,0,0.015190972222222224,0,0)" xlink:href="#w"/><use transform="matrix(0.015190972222222224,0,0,0.015190972222222224,18.396267361111114,0)" xlink:href="#t"/><use transform="matrix(0.015190972222222224,0,0,0.015190972222222224,36.53428819444445,0)" xlink:href="#o"/><use transform="matrix(0.015190972222222224,0,0,0.015190972222222224,44.06901041666667,0)" xlink:href="#v"/><use transform="matrix(0.015190972222222224,0,0,0.015190972222222224,63.148871527777786,0)" xlink:href="#w"/><use transform="matrix(0.015190972222222224,0,0,0.015190972222222224,81.5451388888889,0)" xlink:href="#p"/><use transform="matrix(0.015190972222222224,0,0,0.015190972222222224,91.41927083333334,0)" xlink:href="#D"/></g><path fill="#7188f7" d="M409 0L70-1118h191c89 329 165 560 243 925 75-353 154-601 240-925h192c85 325 161 564 235 922 77-354 157-598 244-922h191L1267 0h-179c-86-307-176-590-250-913C763-588 675-308 588 0H409" id="E"/><g id="f"><use transform="matrix(0.015190972222222224,0,0,0.015190972222222224,0,0)" xlink:href="#E"/><use transform="matrix(0.015190972222222224,0,0,0.015190972222222224,25.460069444444446,0)" xlink:href="#o"/><use transform="matrix(0.015190972222222224,0,0,0.015190972222222224,32.99479166666667,0)" xlink:href="#p"/><use transform="matrix(0.015190972222222224,0,0,0.015190972222222224,43.17274305555556,0)" xlink:href="#w"/></g><path fill="#7188f7" d="M180 0v-1490h224l606 953c40 63 108 177 176 312-27-437-7-821-13-1265h190V0h-226C860-448 622-778 356-1262c27 476 11 792 15 1262H180" id="F"/><g id="g"><use transform="matrix(0.015190972222222224,0,0,0.015190972222222224,0,0)" xlink:href="#F"/><use transform="matrix(0.015190972222222224,0,0,0.015190972222222224,23.439670138888893,0)" xlink:href="#B"/><use transform="matrix(0.015190972222222224,0,0,0.015190972222222224,42.094184027777786,0)" xlink:href="#o"/><use transform="matrix(0.015190972222222224,0,0,0.015190972222222224,49.62890625000001,0)" xlink:href="#D"/><use transform="matrix(0.015190972222222224,0,0,0.015190972222222224,66.05034722222223,0)" xlink:href="#t"/></g><path fill="#7188f7" d="M180 0v-1490h901v168H370v510h643v168H370V0H180" id="G"/><path fill="#7188f7" d="M537 14c-226 0-379-139-379-422v-710h180v695c0 172 97 275 253 275 160 0 281-109 281-300v-670h181V0H879v-209C806-46 684 14 537 14" id="H"/><path fill="#7188f7" d="M613 24c-304 0-509-231-509-576 0-350 205-580 509-580 216 0 392 114 453 309l-173 49c-33-115-133-197-280-197-223 0-326 196-326 419 0 220 103 415 326 415 150 0 252-85 285-206l172 49C1010-95 832 24 613 24" id="I"/><g id="h"><use transform="matrix(0.015190972222222224,0,0,0.015190972222222224,0,0)" xlink:href="#G"/><use transform="matrix(0.015190972222222224,0,0,0.015190972222222224,17.317708333333336,0)" xlink:href="#H"/><use transform="matrix(0.015190972222222224,0,0,0.015190972222222224,35.71397569444445,0)" xlink:href="#n"/><use transform="matrix(0.015190972222222224,0,0,0.015190972222222224,54.09505208333334,0)" xlink:href="#I"/><use transform="matrix(0.015190972222222224,0,0,0.015190972222222224,71.86848958333334,0)" xlink:href="#p"/><use transform="matrix(0.015190972222222224,0,0,0.015190972222222224,82.04644097222223,0)" xlink:href="#o"/><use transform="matrix(0.015190972222222224,0,0,0.015190972222222224,89.58116319444446,0)" xlink:href="#B"/><use transform="matrix(0.015190972222222224,0,0,0.015190972222222224,108.23567708333334,0)" xlink:href="#n"/></g><path fill="#7188f7" d="M135 0v-1490h581c339 0 533 192 533 485 0 204-94 351-264 424L1302 0H964L680-532H440V0H135zm305-779h220c186 0 274-77 274-226 0-150-88-233-275-233H440v459" id="J"/><path fill="#7188f7" d="M513 14c-232 0-385-159-385-421v-711h300v659c0 139 76 222 202 222 127 0 217-86 217-234v-647h301V0H864l-4-232C797-74 683 14 513 14" id="K"/><path fill="#7188f7" d="M428-647V0H128v-1118h283l4 231c63-156 176-245 348-245 232 0 384 159 384 421V0H847v-659c0-139-76-222-202-222-128 0-217 86-217 234" id="L"/><g id="i"><use transform="matrix(0.015190972222222224,0,0,0.015190972222222224,0,0)" xlink:href="#J"/><use transform="matrix(0.015190972222222224,0,0,0.015190972222222224,20.43185763888889,0)" xlink:href="#K"/><use transform="matrix(0.015190972222222224,0,0,0.015190972222222224,39.80034722222223,0)" xlink:href="#L"/></g><path fill="#7188f7" d="M135 0v-1490h997v253H440v360h640v249H440v375h694V0H135" id="M"/><path fill="#7188f7" d="M128 0v-1118h290v195h12c54-169 184-238 367-200v268c-27-8-86-15-130-15-138 0-239 95-239 234V0H128" id="N"/><path fill="#7188f7" d="M628 22C291 22 81-210 81-554c0-346 210-578 547-578 336 0 547 232 547 578 0 344-211 576-547 576zm0-236c160 0 242-146 242-341 0-197-82-341-242-341S387-753 387-555c0 195 81 341 241 341" id="O"/><path fill="#7188f7" d="M572 22C302 22 117-98 78-306l279-48c29 105 101 156 224 156 114 0 185-48 185-115 0-118-228-130-337-155-215-49-322-150-322-317 0-215 187-347 470-347 265 0 424 116 466 298l-266 47c-24-76-87-130-196-130-98 0-174 46-174 113 0 56 38 95 144 117l201 40c216 44 320 143 320 302 0 220-207 367-500 367" id="P"/><path fill="#7188f7" d="M128 0v-1118h300V0H128zm150-1264c-91 0-165-68-165-154 0-85 74-154 165-154 90 0 165 69 165 154 0 86-75 154-165 154" id="Q"/><g id="j"><use transform="matrix(0.015190972222222224,0,0,0.015190972222222224,0,0)" xlink:href="#M"/><use transform="matrix(0.015190972222222224,0,0,0.015190972222222224,18.897569444444446,0)" xlink:href="#N"/><use transform="matrix(0.015190972222222224,0,0,0.015190972222222224,30.80729166666667,0)" xlink:href="#O"/><use transform="matrix(0.015190972222222224,0,0,0.015190972222222224,49.887152777777786,0)" xlink:href="#P"/><use transform="matrix(0.015190972222222224,0,0,0.015190972222222224,67.31119791666667,0)" xlink:href="#Q"/><use transform="matrix(0.015190972222222224,0,0,0.015190972222222224,75.7421875,0)" xlink:href="#O"/><use transform="matrix(0.015190972222222224,0,0,0.015190972222222224,94.82204861111111,0)" xlink:href="#L"/></g><path fill="#7188f7" d="M128 0v-1118h278l12 217c60-163 185-234 319-234 143 0 236 81 288 251 63-172 205-251 359-251 205 0 357 138 357 381V0h-301v-697c0-126-76-187-177-187-114 0-184 79-184 196V0H789v-705c0-109-72-179-174-179-106 0-187 74-187 208V0H128" id="R"/><g id="k"><use transform="matrix(0.015190972222222224,0,0,0.015190972222222224,0,0)" xlink:href="#P"/><use transform="matrix(0.015190972222222224,0,0,0.015190972222222224,17.42404513888889,0)" xlink:href="#Q"/><use transform="matrix(0.015190972222222224,0,0,0.015190972222222224,25.85503472222222,0)" xlink:href="#R"/></g><path fill="#7188f7" d="M158 0v-1118h174v172h12c41-113 157-188 290-188 26 0 70 2 91 3v181c-11-2-60-10-108-10-161 0-279 109-279 260V0H158" id="S"/><g id="l"><use transform="matrix(0.015190972222222224,0,0,0.015190972222222224,0,0)" xlink:href="#z"/><use transform="matrix(0.015190972222222224,0,0,0.015190972222222224,19.56597222222222,0)" xlink:href="#t"/><use transform="matrix(0.015190972222222224,0,0,0.015190972222222224,37.70399305555556,0)" xlink:href="#n"/><use transform="matrix(0.015190972222222224,0,0,0.015190972222222224,56.08506944444444,0)" xlink:href="#A"/><use transform="matrix(0.015190972222222224,0,0,0.015190972222222224,75.13454861111111,0)" xlink:href="#t"/><use transform="matrix(0.015190972222222224,0,0,0.015190972222222224,93.27256944444446,0)" xlink:href="#S"/></g></defs></g></svg>