<svg xmlns="http://www.w3.org/2000/svg" xmlns:xlink="http://www.w3.org/1999/xlink" xmlns:lucid="lucid" width="888.67" height="828.67"><g transform="translate(-220 -158.00000000000006)" lucid:page-tab-id="0_0"><path d="M340 160h153.33v153.33H340z" fill-opacity="0"/><path d="M493.33 160h153.34v153.33H493.33zM646.67 160H800v153.33H646.67zM800 160h153.33v153.33H800zM953.33 160h153.34v153.33H953.33z" fill-opacity="0"/><path d="M340 313.33h153.33v153.34H340z" fill-opacity="0"/><path d="M493.33 313.33h153.34v153.34H493.33zM646.67 313.33H800v153.34H646.67zM800 313.33h153.33v153.34H800zM953.33 313.33h153.34v153.34H953.33zM340 466.67h153.33V620H340z" fill-opacity="0"/><path d="M493.33 466.67h153.34V620H493.33zM646.67 466.67H800V620H646.67zM800 466.67h153.33V620H800zM953.33 466.67h153.34V620H953.33zM340 620h153.33v153.33H340z" fill-opacity="0"/><path d="M493.33 620h153.34v153.33H493.33zM646.67 620H800v153.33H646.67zM800 620h153.33v153.33H800zM953.33 620h153.34v153.33H953.33zM340 773.33h153.33v153.34H340z" fill-opacity="0"/><path d="M493.33 773.33h153.34v153.34H493.33zM646.67 773.33H800v153.34H646.67zM800 773.33h153.33v153.34H800zM953.33 773.33h153.34v153.34H953.33z" fill-opacity="0"/><path d="M340 160v153.33M340 160h153.33M493.33 160v153.33M493.33 160h153.34M646.67 160v153.33M646.67 160H800M800 160v153.33M800 160h153.33M953.33 160v153.33M1106.67 160v153.33M953.33 160h153.34M340 313.33v153.34M340 313.33h153.33M493.33 313.33v153.34M493.33 313.33h153.34M646.67 313.33v153.34M646.67 313.33H800M800 313.33v153.34M800 313.33h153.33M953.33 313.33v153.34M1106.67 313.33v153.34M953.33 313.33h153.34M340 466.67V620M340 466.67h153.33M493.33 466.67V620M493.33 466.67h153.34M646.67 466.67V620M646.67 466.67H800M800 466.67V620M800 466.67h153.33M953.33 466.67V620M1106.67 466.67V620M953.33 466.67h153.34M340 620v153.33M340 620h153.33M493.33 620v153.33M493.33 620h153.34M646.67 620v153.33M646.67 620H800M800 620v153.33M800 620h153.33M953.33 620v153.33M1106.67 620v153.33M953.33 620h153.34M340 773.33v153.34M340 773.33h153.33M340 926.67h153.33M493.33 773.33v153.34M493.33 773.33h153.34M493.33 926.67h153.34M646.67 773.33v153.34M646.67 773.33H800M646.67 926.67H800M800 773.33v153.34M800 773.33h153.33M800 926.67h153.33M953.33 773.33v153.34M1106.67 773.33v153.34M953.33 773.33h153.34M953.33 926.67h153.34" stroke="#7d89a1" stroke-width="4" fill="none"/><use xlink:href="#a" transform="matrix(1,0,0,1,345,165.00000000000006) translate(39.057291666666664 84.93402777777777)"/><use xlink:href="#b" transform="matrix(1,0,0,1,498.3333333333333,165.00000000000006) translate(43.744791666666664 84.93402777777777)"/><use xlink:href="#c" transform="matrix(1,0,0,1,651.6666666666666,165.00000000000006) translate(39.43055555555556 84.93402777777777)"/><use xlink:href="#d" transform="matrix(1,0,0,1,805,165.00000000000006) translate(39.291666666666664 84.93402777777777)"/><use xlink:href="#e" transform="matrix(1,0,0,1,958.3333333333333,165.00000000000006) translate(38.78819444444444 84.93402777777777)"/><use xlink:href="#f" transform="matrix(1,0,0,1,345,318.3333333333334) translate(43.041666666666664 84.93402777777777)"/><use xlink:href="#g" transform="matrix(1,0,0,1,498.3333333333333,318.3333333333334) translate(47.729166666666664 84.93402777777777)"/><use xlink:href="#h" transform="matrix(1,0,0,1,651.6666666666666,318.3333333333334) translate(43.41493055555556 84.93402777777777)"/><use xlink:href="#i" transform="matrix(1,0,0,1,805,318.3333333333334) translate(43.276041666666664 84.93402777777777)"/><use xlink:href="#j" transform="matrix(1,0,0,1,958.3333333333333,318.3333333333334) translate(43.119791666666664 84.93402777777777)"/><use xlink:href="#k" transform="matrix(1,0,0,1,345,471.6666666666668) translate(39.43055555555556 84.93402777777777)"/><use xlink:href="#l" transform="matrix(1,0,0,1,498.3333333333333,471.6666666666668) translate(44.11805555555556 84.93402777777777)"/><use xlink:href="#m" transform="matrix(1,0,0,1,651.6666666666666,471.6666666666668) translate(39.80381944444444 84.93402777777777)"/><use xlink:href="#n" transform="matrix(1,0,0,1,805,471.6666666666668) translate(39.66493055555556 84.93402777777777)"/><use xlink:href="#o" transform="matrix(1,0,0,1,958.3333333333333,471.6666666666668) translate(39.16145833333333 84.93402777777777)"/><use xlink:href="#p" transform="matrix(1,0,0,1,345,625.0000000000002) translate(39.291666666666664 84.93402777777777)"/><use xlink:href="#q" transform="matrix(1,0,0,1,498.3333333333333,625.0000000000002) translate(43.979166666666664 84.93402777777777)"/><use xlink:href="#r" transform="matrix(1,0,0,1,651.6666666666666,625.0000000000002) translate(39.66493055555556 84.93402777777777)"/><use xlink:href="#s" transform="matrix(1,0,0,1,805,625.0000000000002) translate(39.526041666666664 84.93402777777777)"/><use xlink:href="#t" transform="matrix(1,0,0,1,958.3333333333333,625.0000000000002) translate(39.02256944444444 84.93402777777777)"/><use xlink:href="#u" transform="matrix(1,0,0,1,345,778.3333333333335) translate(38.78819444444444 84.93402777777777)"/><use xlink:href="#v" transform="matrix(1,0,0,1,498.3333333333333,778.3333333333335) translate(43.47569444444444 84.93402777777777)"/><use xlink:href="#w" transform="matrix(1,0,0,1,651.6666666666666,778.3333333333335) translate(39.439236111111114 84.93402777777777)"/><use xlink:href="#x" transform="matrix(1,0,0,1,805,778.3333333333335) translate(39.02256944444444 84.93402777777777)"/><use xlink:href="#y" transform="matrix(1,0,0,1,958.3333333333333,778.3333333333335) translate(38.51909722222222 84.93402777777777)"/><path d="M360 932.67a6 6 0 0 1 6-6h88a6 6 0 0 1 6 6v48a6 6 0 0 1-6 6h-88a6 6 0 0 1-6-6z" fill="none"/><use xlink:href="#z" transform="matrix(1,0,0,1,360,926.6666666666669) translate(7.317708333333329 42.93402777777778)"/><use xlink:href="#A" transform="matrix(1,0,0,1,360,926.6666666666669) translate(36.72743055555555 42.93402777777778)"/><use xlink:href="#B" transform="matrix(1,0,0,1,360,926.6666666666669) translate(70.25173611111111 42.93402777777778)"/><path d="M520 932.67a6 6 0 0 1 6-6h88a6 6 0 0 1 6 6v48a6 6 0 0 1-6 6h-88a6 6 0 0 1-6-6z" fill="none"/><use xlink:href="#z" transform="matrix(1,0,0,1,520,926.6666666666669) translate(11.302083333333336 42.93402777777778)"/><use xlink:href="#A" transform="matrix(1,0,0,1,520,926.6666666666669) translate(40.71180555555556 42.93402777777778)"/><use xlink:href="#C" transform="matrix(1,0,0,1,520,926.6666666666669) translate(74.23611111111111 42.93402777777778)"/><path d="M673.33 932.67a6 6 0 0 1 6-6h88a6 6 0 0 1 6 6v48a6 6 0 0 1-6 6h-88a6 6 0 0 1-6-6z" fill="none"/><use xlink:href="#z" transform="matrix(1,0,0,1,673.3333333333333,926.6666666666669) translate(7.690972222222221 42.93402777777778)"/><use xlink:href="#A" transform="matrix(1,0,0,1,673.3333333333333,926.6666666666669) translate(37.10069444444444 42.93402777777778)"/><use xlink:href="#D" transform="matrix(1,0,0,1,673.3333333333333,926.6666666666669) translate(70.625 42.93402777777778)"/><path d="M826.67 932.67a6 6 0 0 1 6-6h88a6 6 0 0 1 6 6v48a6 6 0 0 1-6 6h-88a6 6 0 0 1-6-6z" fill="none"/><use xlink:href="#z" transform="matrix(1,0,0,1,826.6666666666665,926.6666666666669) translate(7.552083333333329 42.93402777777778)"/><use xlink:href="#A" transform="matrix(1,0,0,1,826.6666666666665,926.6666666666669) translate(36.96180555555555 42.93402777777778)"/><use xlink:href="#E" transform="matrix(1,0,0,1,826.6666666666665,926.6666666666669) translate(70.48611111111111 42.93402777777778)"/><path d="M980 932.67a6 6 0 0 1 6-6h88a6 6 0 0 1 6 6v48a6 6 0 0 1-6 6h-88a6 6 0 0 1-6-6z" fill="none"/><use xlink:href="#z" transform="matrix(1,0,0,1,979.9999999999998,926.6666666666669) translate(7.048611111111114 42.93402777777778)"/><use xlink:href="#A" transform="matrix(1,0,0,1,979.9999999999998,926.6666666666669) translate(36.458333333333336 42.93402777777778)"/><use xlink:href="#F" transform="matrix(1,0,0,1,979.9999999999998,926.6666666666669) translate(69.98263888888889 42.93402777777778)"/><path d="M220 214a6 6 0 0 1 6-6h88a6 6 0 0 1 6 6v48a6 6 0 0 1-6 6h-88a6 6 0 0 1-6-6z" fill="none"/><g><use xlink:href="#G" transform="matrix(1,0,0,1,220,208) translate(7.03125 42.93402777777778)"/><use xlink:href="#A" transform="matrix(1,0,0,1,220,208) translate(37.013888888888886 42.93402777777778)"/><use xlink:href="#B" transform="matrix(1,0,0,1,220,208) translate(70.53819444444444 42.93402777777778)"/></g><path d="M220 374a6 6 0 0 1 6-6h88a6 6 0 0 1 6 6v48a6 6 0 0 1-6 6h-88a6 6 0 0 1-6-6z" fill="none"/><g><use xlink:href="#G" transform="matrix(1,0,0,1,220,368) translate(11.015625 42.93402777777778)"/><use xlink:href="#A" transform="matrix(1,0,0,1,220,368) translate(40.998263888888886 42.93402777777778)"/><use xlink:href="#C" transform="matrix(1,0,0,1,220,368) translate(74.52256944444444 42.93402777777778)"/></g><path d="M220 516a6 6 0 0 1 6-6h88a6 6 0 0 1 6 6v48a6 6 0 0 1-6 6h-88a6 6 0 0 1-6-6z" fill="none"/><g><use xlink:href="#G" transform="matrix(1,0,0,1,220,510) translate(7.404513888888886 42.93402777777778)"/><use xlink:href="#A" transform="matrix(1,0,0,1,220,510) translate(37.38715277777777 42.93402777777778)"/><use xlink:href="#D" transform="matrix(1,0,0,1,220,510) translate(70.91145833333333 42.93402777777778)"/></g><path d="M220 675a6 6 0 0 1 6-6h88a6 6 0 0 1 6 6v48a6 6 0 0 1-6 6h-88a6 6 0 0 1-6-6z" fill="none"/><g><use xlink:href="#G" transform="matrix(1,0,0,1,220,669) translate(7.265625 42.93402777777778)"/><use xlink:href="#A" transform="matrix(1,0,0,1,220,669) translate(37.248263888888886 42.93402777777778)"/><use xlink:href="#E" transform="matrix(1,0,0,1,220,669) translate(70.77256944444444 42.93402777777778)"/></g><path d="M220 834a6 6 0 0 1 6-6h88a6 6 0 0 1 6 6v48a6 6 0 0 1-6 6h-88a6 6 0 0 1-6-6z" fill="none"/><g><use xlink:href="#G" transform="matrix(1,0,0,1,220,828) translate(6.762152777777779 42.93402777777778)"/><use xlink:href="#A" transform="matrix(1,0,0,1,220,828) translate(36.74479166666667 42.93402777777778)"/><use xlink:href="#F" transform="matrix(1,0,0,1,220,828) translate(70.26909722222223 42.93402777777778)"/></g><defs><path fill="#7188f7" d="M338-670V0H158v-1490h180v566c73-149 190-208 336-208 226 0 379 139 379 422V0H872v-695c0-172-96-275-252-275-161 0-282 109-282 300" id="H"/><path fill="#7188f7" d="M646 20c-332 0-524-278-524-764 0-483 194-766 524-766s524 283 524 766c0 485-191 764-524 764zm0-166c218 0 341-220 341-598 0-380-123-601-341-601s-341 222-341 601c0 378 123 598 341 598" id="I"/><g id="a"><use transform="matrix(0.017361111111111112,0,0,0.017361111111111112,0,0)" xlink:href="#H"/><use transform="matrix(0.017361111111111112,0,0,0.017361111111111112,21.024305555555557,0)" xlink:href="#I"/><use transform="matrix(0.017361111111111112,0,0,0.017361111111111112,43.454861111111114,0)" xlink:href="#I"/></g><path fill="#7188f7" d="M653-1490V0H466v-1314h-10L96-1047v-204l324-239h233" id="J"/><g id="b"><use transform="matrix(0.017361111111111112,0,0,0.017361111111111112,0,0)" xlink:href="#H"/><use transform="matrix(0.017361111111111112,0,0,0.017361111111111112,19.618055555555557,0)" xlink:href="#J"/><use transform="matrix(0.017361111111111112,0,0,0.017361111111111112,34.079861111111114,0)" xlink:href="#I"/></g><path fill="#7188f7" d="M154 0v-137l495-537c165-179 249-281 249-418 0-156-121-253-280-253-170 0-278 110-278 278H158c0-264 200-443 465-443 266 0 455 183 455 416 0 161-73 288-336 568L416-179v12h687V0H154" id="K"/><g id="c"><use transform="matrix(0.017361111111111112,0,0,0.017361111111111112,0,0)" xlink:href="#H"/><use transform="matrix(0.017361111111111112,0,0,0.017361111111111112,21.024305555555557,0)" xlink:href="#K"/><use transform="matrix(0.017361111111111112,0,0,0.017361111111111112,42.708333333333336,0)" xlink:href="#I"/></g><path fill="#7188f7" d="M635 20c-292 0-500-160-510-396h192c11 142 145 229 315 229 187 0 323-105 323-260 0-161-125-274-346-274H488v-165h121c174 0 294-100 294-254 0-148-104-245-266-245-152 0-291 85-297 230H157c8-234 222-395 484-395 278 0 448 188 448 400 0 168-95 291-247 336v12c190 31 301 169 301 357 0 244-216 425-508 425" id="L"/><g id="d"><use transform="matrix(0.017361111111111112,0,0,0.017361111111111112,0,0)" xlink:href="#H"/><use transform="matrix(0.017361111111111112,0,0,0.017361111111111112,21.024305555555557,0)" xlink:href="#L"/><use transform="matrix(0.017361111111111112,0,0,0.017361111111111112,42.986111111111114,0)" xlink:href="#I"/></g><path fill="#7188f7" d="M120-303v-155l652-1032h231v1020h202v167h-202V0H821v-303H120zm702-167v-782h-12L323-482v12h499" id="M"/><g id="e"><use transform="matrix(0.017361111111111112,0,0,0.017361111111111112,0,0)" xlink:href="#H"/><use transform="matrix(0.017361111111111112,0,0,0.017361111111111112,21.024305555555557,0)" xlink:href="#M"/><use transform="matrix(0.017361111111111112,0,0,0.017361111111111112,43.99305555555556,0)" xlink:href="#I"/></g><g id="f"><use transform="matrix(0.017361111111111112,0,0,0.017361111111111112,0,0)" xlink:href="#H"/><use transform="matrix(0.017361111111111112,0,0,0.017361111111111112,21.024305555555557,0)" xlink:href="#I"/><use transform="matrix(0.017361111111111112,0,0,0.017361111111111112,43.454861111111114,0)" xlink:href="#J"/></g><g id="g"><use transform="matrix(0.017361111111111112,0,0,0.017361111111111112,0,0)" xlink:href="#H"/><use transform="matrix(0.017361111111111112,0,0,0.017361111111111112,19.618055555555557,0)" xlink:href="#J"/><use transform="matrix(0.017361111111111112,0,0,0.017361111111111112,34.079861111111114,0)" xlink:href="#J"/></g><g id="h"><use transform="matrix(0.017361111111111112,0,0,0.017361111111111112,0,0)" xlink:href="#H"/><use transform="matrix(0.017361111111111112,0,0,0.017361111111111112,21.024305555555557,0)" xlink:href="#K"/><use transform="matrix(0.017361111111111112,0,0,0.017361111111111112,42.708333333333336,0)" xlink:href="#J"/></g><g id="i"><use transform="matrix(0.017361111111111112,0,0,0.017361111111111112,0,0)" xlink:href="#H"/><use transform="matrix(0.017361111111111112,0,0,0.017361111111111112,21.024305555555557,0)" xlink:href="#L"/><use transform="matrix(0.017361111111111112,0,0,0.017361111111111112,42.986111111111114,0)" xlink:href="#J"/></g><g id="j"><use transform="matrix(0.017361111111111112,0,0,0.017361111111111112,0,0)" xlink:href="#H"/><use transform="matrix(0.017361111111111112,0,0,0.017361111111111112,21.024305555555557,0)" xlink:href="#M"/><use transform="matrix(0.017361111111111112,0,0,0.017361111111111112,43.298611111111114,0)" xlink:href="#J"/></g><g id="k"><use transform="matrix(0.017361111111111112,0,0,0.017361111111111112,0,0)" xlink:href="#H"/><use transform="matrix(0.017361111111111112,0,0,0.017361111111111112,21.024305555555557,0)" xlink:href="#I"/><use transform="matrix(0.017361111111111112,0,0,0.017361111111111112,43.454861111111114,0)" xlink:href="#K"/></g><g id="l"><use transform="matrix(0.017361111111111112,0,0,0.017361111111111112,0,0)" xlink:href="#H"/><use transform="matrix(0.017361111111111112,0,0,0.017361111111111112,19.618055555555557,0)" xlink:href="#J"/><use transform="matrix(0.017361111111111112,0,0,0.017361111111111112,34.079861111111114,0)" xlink:href="#K"/></g><g id="m"><use transform="matrix(0.017361111111111112,0,0,0.017361111111111112,0,0)" xlink:href="#H"/><use transform="matrix(0.017361111111111112,0,0,0.017361111111111112,21.024305555555557,0)" xlink:href="#K"/><use transform="matrix(0.017361111111111112,0,0,0.017361111111111112,42.708333333333336,0)" xlink:href="#K"/></g><g id="n"><use transform="matrix(0.017361111111111112,0,0,0.017361111111111112,0,0)" xlink:href="#H"/><use transform="matrix(0.017361111111111112,0,0,0.017361111111111112,21.024305555555557,0)" xlink:href="#L"/><use transform="matrix(0.017361111111111112,0,0,0.017361111111111112,42.986111111111114,0)" xlink:href="#K"/></g><g id="o"><use transform="matrix(0.017361111111111112,0,0,0.017361111111111112,0,0)" xlink:href="#H"/><use transform="matrix(0.017361111111111112,0,0,0.017361111111111112,21.024305555555557,0)" xlink:href="#M"/><use transform="matrix(0.017361111111111112,0,0,0.017361111111111112,43.99305555555556,0)" xlink:href="#K"/></g><g id="p"><use transform="matrix(0.017361111111111112,0,0,0.017361111111111112,0,0)" xlink:href="#H"/><use transform="matrix(0.017361111111111112,0,0,0.017361111111111112,21.024305555555557,0)" xlink:href="#I"/><use transform="matrix(0.017361111111111112,0,0,0.017361111111111112,43.454861111111114,0)" xlink:href="#L"/></g><g id="q"><use transform="matrix(0.017361111111111112,0,0,0.017361111111111112,0,0)" xlink:href="#H"/><use transform="matrix(0.017361111111111112,0,0,0.017361111111111112,19.618055555555557,0)" xlink:href="#J"/><use transform="matrix(0.017361111111111112,0,0,0.017361111111111112,34.079861111111114,0)" xlink:href="#L"/></g><g id="r"><use transform="matrix(0.017361111111111112,0,0,0.017361111111111112,0,0)" xlink:href="#H"/><use transform="matrix(0.017361111111111112,0,0,0.017361111111111112,21.024305555555557,0)" xlink:href="#K"/><use transform="matrix(0.017361111111111112,0,0,0.017361111111111112,42.708333333333336,0)" xlink:href="#L"/></g><g id="s"><use transform="matrix(0.017361111111111112,0,0,0.017361111111111112,0,0)" xlink:href="#H"/><use transform="matrix(0.017361111111111112,0,0,0.017361111111111112,21.024305555555557,0)" xlink:href="#L"/><use transform="matrix(0.017361111111111112,0,0,0.017361111111111112,42.986111111111114,0)" xlink:href="#L"/></g><g id="t"><use transform="matrix(0.017361111111111112,0,0,0.017361111111111112,0,0)" xlink:href="#H"/><use transform="matrix(0.017361111111111112,0,0,0.017361111111111112,21.024305555555557,0)" xlink:href="#M"/><use transform="matrix(0.017361111111111112,0,0,0.017361111111111112,43.99305555555556,0)" xlink:href="#L"/></g><g id="u"><use transform="matrix(0.017361111111111112,0,0,0.017361111111111112,0,0)" xlink:href="#H"/><use transform="matrix(0.017361111111111112,0,0,0.017361111111111112,21.024305555555557,0)" xlink:href="#I"/><use transform="matrix(0.017361111111111112,0,0,0.017361111111111112,43.454861111111114,0)" xlink:href="#M"/></g><g id="v"><use transform="matrix(0.017361111111111112,0,0,0.017361111111111112,0,0)" xlink:href="#H"/><use transform="matrix(0.017361111111111112,0,0,0.017361111111111112,19.618055555555557,0)" xlink:href="#J"/><use transform="matrix(0.017361111111111112,0,0,0.017361111111111112,34.079861111111114,0)" xlink:href="#M"/></g><g id="w"><use transform="matrix(0.017361111111111112,0,0,0.017361111111111112,0,0)" xlink:href="#H"/><use transform="matrix(0.017361111111111112,0,0,0.017361111111111112,21.024305555555557,0)" xlink:href="#K"/><use transform="matrix(0.017361111111111112,0,0,0.017361111111111112,42.15277777777778,0)" xlink:href="#M"/></g><g id="x"><use transform="matrix(0.017361111111111112,0,0,0.017361111111111112,0,0)" xlink:href="#H"/><use transform="matrix(0.017361111111111112,0,0,0.017361111111111112,21.024305555555557,0)" xlink:href="#L"/><use transform="matrix(0.017361111111111112,0,0,0.017361111111111112,42.986111111111114,0)" xlink:href="#M"/></g><g id="y"><use transform="matrix(0.017361111111111112,0,0,0.017361111111111112,0,0)" xlink:href="#H"/><use transform="matrix(0.017361111111111112,0,0,0.017361111111111112,21.024305555555557,0)" xlink:href="#M"/><use transform="matrix(0.017361111111111112,0,0,0.017361111111111112,43.99305555555556,0)" xlink:href="#M"/></g><path fill="#7188f7" d="M65 0l393-574-370-544h210c88 136 192 297 267 435 67-142 176-302 264-435h206L661-564 1053 0H844c-94-144-206-310-287-458C484-308 366-142 273 0H65" id="N"/><use transform="matrix(0.017361111111111112,0,0,0.017361111111111112,0,0)" xlink:href="#N" id="z"/><path fill="#7188f7" d="M226-283v-166h904v166H226zm0-434v-166h904v166H226" id="O"/><use transform="matrix(0.017361111111111112,0,0,0.017361111111111112,0,0)" xlink:href="#O" id="A"/><use transform="matrix(0.017361111111111112,0,0,0.017361111111111112,0,0)" xlink:href="#I" id="B"/><use transform="matrix(0.017361111111111112,0,0,0.017361111111111112,0,0)" xlink:href="#J" id="C"/><use transform="matrix(0.017361111111111112,0,0,0.017361111111111112,0,0)" xlink:href="#K" id="D"/><use transform="matrix(0.017361111111111112,0,0,0.017361111111111112,0,0)" xlink:href="#L" id="E"/><use transform="matrix(0.017361111111111112,0,0,0.017361111111111112,0,0)" xlink:href="#M" id="F"/><path fill="#7188f7" d="M140 405l46-156c120 36 205 19 263-150l32-93L54-1118h197c107 313 237 620 324 950 87-331 219-637 326-950h196L606 167c-68 178-176 259-334 259-64 0-113-12-132-21" id="P"/><use transform="matrix(0.017361111111111112,0,0,0.017361111111111112,0,0)" xlink:href="#P" id="G"/></defs></g></svg>