<?xml version="1.0" encoding="UTF-8"?>
<!DOCTYPE svg PUBLIC "-//W3C//DTD SVG 1.1//EN" "http://www.w3.org/Graphics/SVG/1.1/DTD/svg11.dtd">
<svg xmlns="http://www.w3.org/2000/svg" xmlns:xlink="http://www.w3.org/1999/xlink" version="1.1" width="146px" height="146px" viewBox="-0.5 -0.5 146 146"><defs/><g><rect x="3" y="3" width="40" height="40" fill="none" stroke="#788aa3" pointer-events="all"/><rect x="53" y="3" width="40" height="40" fill="none" stroke="#788aa3" pointer-events="all"/><rect x="103" y="3" width="40" height="40" fill="none" stroke="#788aa3" pointer-events="all"/><rect x="3" y="53" width="40" height="40" fill="none" stroke="#788aa3" pointer-events="all"/><rect x="53" y="53" width="40" height="40" fill="#6688ff" stroke="#788aa3" stroke-width="2" pointer-events="all"/><rect x="103" y="53" width="40" height="40" fill="none" stroke="#788aa3" pointer-events="all"/><rect x="3" y="103" width="40" height="40" fill="none" stroke="#788aa3" pointer-events="all"/><rect x="53" y="103" width="40" height="40" fill="none" stroke="#788aa3" pointer-events="all"/><rect x="103" y="103" width="40" height="40" fill="none" stroke="#788aa3" pointer-events="all"/><path d="M 96 50 L 112.5 33.5" fill="none" stroke="#788aa3" stroke-miterlimit="10" pointer-events="stroke"/><path d="M 116.21 29.79 L 113.73 37.22 L 112.5 33.5 L 108.78 32.27 Z" fill="#788aa3" stroke="#788aa3" stroke-miterlimit="10" pointer-events="all"/><path d="M 33.5 112.5 L 50 96" fill="none" stroke="#788aa3" stroke-miterlimit="10" pointer-events="stroke"/><path d="M 29.79 116.21 L 32.27 108.78 L 33.5 112.5 L 37.22 113.73 Z" fill="#788aa3" stroke="#788aa3" stroke-miterlimit="10" pointer-events="all"/><path d="M 35.37 73 L 50 73" fill="none" stroke="#788aa3" stroke-miterlimit="10" pointer-events="stroke"/><path d="M 30.12 73 L 37.12 69.5 L 35.37 73 L 37.12 76.5 Z" fill="#788aa3" stroke="#788aa3" stroke-miterlimit="10" pointer-events="all"/><path d="M 110.63 72.9 L 96 72.9" fill="none" stroke="#788aa3" stroke-miterlimit="10" pointer-events="stroke"/><path d="M 115.88 72.9 L 108.88 76.4 L 110.63 72.9 L 108.88 69.4 Z" fill="#788aa3" stroke="#788aa3" stroke-miterlimit="10" pointer-events="all"/><path d="M 50 50 L 34.39 33.61" fill="none" stroke="#788aa3" stroke-miterlimit="10" pointer-events="stroke"/><path d="M 30.77 29.81 L 38.13 32.46 L 34.39 33.61 L 33.06 37.29 Z" fill="#788aa3" stroke="#788aa3" stroke-miterlimit="10" pointer-events="all"/><path d="M 96 96 L 110.73 112.28" fill="none" stroke="#788aa3" stroke-miterlimit="10" pointer-events="stroke"/><path d="M 114.25 116.17 L 106.96 113.33 L 110.73 112.28 L 112.15 108.63 Z" fill="#788aa3" stroke="#788aa3" stroke-miterlimit="10" pointer-events="all"/><path d="M 72.9 36.37 L 72.9 50" fill="none" stroke="#788aa3" stroke-miterlimit="10" pointer-events="stroke"/><path d="M 72.9 31.12 L 76.4 38.12 L 72.9 36.37 L 69.4 38.12 Z" fill="#788aa3" stroke="#788aa3" stroke-miterlimit="10" pointer-events="all"/><path d="M 72.9 109.63 L 72.9 96" fill="none" stroke="#788aa3" stroke-miterlimit="10" pointer-events="stroke"/><path d="M 72.9 114.88 L 69.4 107.88 L 72.9 109.63 L 76.4 107.88 Z" fill="#788aa3" stroke="#788aa3" stroke-miterlimit="10" pointer-events="all"/></g></svg>