<svg id="Capa_1" enable-background="new 0 0 412.902 412.902" height="512" viewBox="0 0 412.902 412.902" width="512" xmlns="http://www.w3.org/2000/svg"><g><path d="m25.441 166.261s23.337 9.395 33.641 22.124c10.305 12.729 26.671 45.158 26.671 52.432s-7.274 10.001-12.123 4.546-9.056-25.825-20.805-41.491c-10.059-13.412-9.805-13.669-27.384-19.427v-18.184z" fill="#4d5c7d"/><path d="m45.473 151.52s-19.394 6.221-16.466 43.544 20.13 73.013 63.67 74.281c39.062 1.138 52.326-8.782 72.817-35.128s21.223-60.376 3.659-71.354c-17.564-10.977-65.865-32.2-123.68-11.343z" fill="#ebf0f3" opacity=".5"/><path d="m387.461 166.261s-23.337 9.395-33.641 22.124c-10.305 12.729-26.671 45.158-26.671 52.432s7.274 10.001 12.123 4.546 9.056-25.825 20.805-41.491c10.059-13.412 9.805-13.669 27.384-19.427z" fill="#4d5c7d"/><path d="m366.569 152.306s19.114 6.131 16.229 42.917-19.84 71.961-62.753 73.211c-38.499 1.122-51.572-8.656-71.769-34.622s-20.918-59.507-3.606-70.326 64.917-31.737 121.899-11.18z" fill="#ebf0f3" opacity=".5"/><path d="m409.421 153.843c-28.486-15.079-80.182-21.393-115.458-17.501-36.761 4.058-60.821 21.898-60.821 21.898-2.487 1.171-5.848.676-8.406-.024-3.098-.848-6.285-1.331-9.498-1.331h-17.574c-3.212 0-6.399.483-9.498 1.331-2.558.7-5.919 1.195-8.406.024 0 0-24.06-17.84-60.821-21.898-35.276-3.892-86.972 2.422-115.458 17.501-2.14 1.132-3.481 3.345-3.481 5.767v7.035c0 2.357 1.283 4.512 3.337 5.68 4.498 2.552 12.167 8.152 14.229 17.537 2.977 13.522 8.383 48.661 23.253 64.339 14.863 15.677 37.842 28.385 80.009 21.624 42.174-6.754 61.902-51.898 61.902-51.898s9.19-18.654 10.271-27.304-5.132-14.056-2.162-16.492c2.639-2.153 4.646-8.131 15.612-8.332 10.966.2 12.972 6.178 15.612 8.332 2.97 2.436-3.244 7.842-2.162 16.492 1.081 8.65 10.271 27.304 10.271 27.304s19.728 45.144 61.902 51.898c42.167 6.761 65.146-5.947 80.009-21.624 14.87-15.677 20.276-50.817 23.253-64.339 2.062-9.385 9.731-14.986 14.229-17.537 2.054-1.168 3.337-3.323 3.337-5.68v-7.035c0-2.422-1.341-4.635-3.481-5.767zm-245.446 79.664c-19.973 25.682-32.905 35.355-70.985 34.245-42.441-1.24-59.207-36.026-62.061-72.412-2.854-36.379 16.052-42.448 16.052-42.448 56.352-20.327 103.435.36 120.561 11.064 17.12 10.697 16.407 43.868-3.567 69.551zm217.998-38.167c-2.854 36.386-19.62 71.172-62.061 72.412-38.08 1.11-51.011-8.563-70.985-34.245-19.973-25.682-20.687-58.854-3.568-69.55 17.126-10.704 64.209-31.391 120.561-11.064 0-.001 18.907 6.068 16.053 42.447z" fill="#64798a"/></g></svg>